# xmcd CD database file
#
# Track frame offsets:
#	150
#	12860
#	34100
#	51837
#	72072
#	93042
#	110517
#	124670
#	129285
#	144140
#	162305
#
# Disc length: 2349 seconds
#
# Revision: 1
# Processed by: cddbd v1.5.2PL0 Copyright (c) Steve Scherf et al.
# Submitted via: CDex 1.50beta10
#
DISCID=83092b0b
DTITLE=Pure Prairie League - Can't Hold Back
DYEAR=1979
DGENRE=Country Rock
TTITLE0=I Can't Hold Back
TTITLE1=I Can't Believe
TTITLE2=Rude Rude Awakening
TTITLE3=White Line
TTITLE4=Misery Train
TTITLE5=Restless Woman
TTITLE6=I'm Goin' Away
TTITLE7=Jerene
TTITLE8=Livin' It Alone
TTITLE9=Fool Fool
TTITLE10=Goodbye So Long
EXTD=1979 BMG Entertainment\nBilly Hinds - Drums\nMichael Connor - Keyboards, Synthesizer\nMichael Reilly - Bass, Vocals\nVince Gill - Guitar, Banjo, Dobro, Vocals\nPatrick Bolen - Guitar, Voacals\n---Note---\nCraig Fuller does not appear on this album..
EXTD=YEAR: 1979
EXTT0=
EXTT1=
EXTT2=
EXTT3=
EXTT4=
EXTT5=
EXTT6=
EXTT7=
EXTT8=
EXTT9=
EXTT10=
PLAYORDER=
